<?xml version="1.0" encoding="UTF-8"?>
<svg id="Layer_1" data-name="Layer 1" xmlns="http://www.w3.org/2000/svg" viewBox="0 0 64 64">
  <path d="m62.66,29.28h-6.69c-.74,0-1.34-.6-1.34-1.34s.6-1.34,1.34-1.34h6.69c.74,0,1.34.6,1.34,1.34s-.6,1.34-1.34,1.34Z"/>
  <path d="m57.96,40.64c-.34,0-.68-.13-.95-.39l-4.73-4.73c-.52-.52-.52-1.37,0-1.89s1.37-.52,1.89,0l4.73,4.73c.52.52.52,1.37,0,1.89-.26.26-.6.39-.95.39Z"/>
  <path d="m53.22,22.66c-.34,0-.68-.13-.95-.39-.52-.52-.52-1.37,0-1.89l4.73-4.73c.52-.52,1.37-.52,1.89,0s.52,1.37,0,1.89l-4.73,4.73c-.26.26-.6.39-.95.39Z"/>
  <path d="m43.18,35.83l-1.2-2.39,4.61-2.31v-6.38l-4.61-2.31,1.2-2.39,5.35,2.68c.45.23.74.69.74,1.2v8.03c0,.51-.29.97-.74,1.2l-5.35,2.68Z"/>
  <path d="m15.82,61.4c-3.69,0-6.69-3-6.69-6.69v-16.06c0-.74.6-1.34,1.34-1.34h10.71c.74,0,1.34.6,1.34,1.34v16.06c0,3.69-3,6.69-6.69,6.69Zm-4.02-21.41v14.72c0,2.21,1.8,4.02,4.02,4.02s4.02-1.8,4.02-4.02v-14.72h-8.03Z"/>
  <path d="m62.66,29.28h-6.69c-.74,0-1.34-.6-1.34-1.34s.6-1.34,1.34-1.34h6.69c.74,0,1.34.6,1.34,1.34s-.6,1.34-1.34,1.34Z"/>
  <path d="m57.96,40.64c-.34,0-.68-.13-.95-.39l-4.73-4.73c-.52-.52-.52-1.37,0-1.89s1.37-.52,1.89,0l4.73,4.73c.52.52.52,1.37,0,1.89-.26.26-.6.39-.95.39Z"/>
  <path d="m53.22,22.66c-.34,0-.68-.13-.95-.39-.52-.52-.52-1.37,0-1.89l4.73-4.73c.52-.52,1.37-.52,1.89,0s.52,1.37,0,1.89l-4.73,4.73c-.26.26-.6.39-.95.39Z"/>
  <path d="m39.91,50.7c-.63,0-1.26-.16-1.84-.47l-16.29-10.45c-.62-.4-.8-1.23-.4-1.85.4-.62,1.23-.8,1.85-.4l16.2,10.4c.43.23.86.05,1.08-.07.46-.27.74-.79.74-1.39V9.43c0-.6-.27-1.12-.74-1.39-.21-.13-.65-.3-1.16-.02l-16.12,10.35c-.62.4-1.45.22-1.85-.4-.4-.62-.22-1.45.4-1.85l16.2-10.4c1.29-.7,2.72-.67,3.89.03,1.28.76,2.04,2.14,2.04,3.69v37.02c0,1.55-.76,2.93-2.04,3.69-.61.36-1.29.55-1.97.55Z"/>
  <path d="m43.18,35.83l-1.2-2.39,4.61-2.31v-6.38l-4.61-2.31,1.2-2.39,5.35,2.68c.45.23.74.69.74,1.2v8.03c0,.51-.29.97-.74,1.2l-5.35,2.68Z"/>
  <path d="m15.82,61.4c-3.69,0-6.69-3-6.69-6.69v-16.06c0-.74.6-1.34,1.34-1.34h10.71c.74,0,1.34.6,1.34,1.34v16.06c0,3.69-3,6.69-6.69,6.69Zm-4.02-21.41v14.72c0,2.21,1.8,4.02,4.02,4.02s4.02-1.8,4.02-4.02v-14.72h-8.03Z"/>
  <path d="m22.51,39.99h-12.05c-2.95,0-5.35-2.4-5.35-5.35v-13.38c0-2.95,2.4-5.35,5.35-5.35h12.05c.74,0,1.34.6,1.34,1.34v21.41c0,.74-.6,1.34-1.34,1.34Zm-12.05-21.41c-1.48,0-2.68,1.2-2.68,2.68v13.38c0,1.48,1.2,2.68,2.68,2.68h10.71v-18.74h-10.71Z"/>
  <path d="m6.45,35.97h-2.68c-2.21,0-4.02-1.8-4.02-4.02v-8.03c0-2.21,1.8-4.02,4.02-4.02h2.68c.74,0,1.34.6,1.34,1.34s-.6,1.34-1.34,1.34h-2.68c-.74,0-1.34.6-1.34,1.34v8.03c0,.74.6,1.34,1.34,1.34h2.68c.74,0,1.34.6,1.34,1.34s-.6,1.34-1.34,1.34Z"/>
</svg>