<?xml version="1.0" encoding="UTF-8"?>
<svg id="Layer_1" data-name="Layer 1" xmlns="http://www.w3.org/2000/svg" viewBox="0 0 64 64">
  <path d="m16.05,63.94c-4.41,0-7.99-3.59-7.99-7.99s3.59-7.99,7.99-7.99,7.99,3.59,7.99,7.99-3.59,7.99-7.99,7.99Zm0-13.32c-2.94,0-5.33,2.39-5.33,5.33s2.39,5.33,5.33,5.33,5.33-2.39,5.33-5.33-2.39-5.33-5.33-5.33Z"/>
  <path d="m48.02,63.94c-4.41,0-7.99-3.59-7.99-7.99s3.59-7.99,7.99-7.99,7.99,3.59,7.99,7.99-3.59,7.99-7.99,7.99Zm0-13.32c-2.94,0-5.33,2.39-5.33,5.33s2.39,5.33,5.33,5.33,5.33-2.39,5.33-5.33-2.39-5.33-5.33-5.33Z"/>
  <path d="m54.68,39.96h-5.33c-.63,0-1.18-.45-1.31-1.07l-1.33-6.66c-.14-.72.32-1.42,1.04-1.57.73-.15,1.42.32,1.57,1.04l1.12,5.59h4.24c.74,0,1.33.6,1.33,1.33s-.6,1.33-1.33,1.33Z"/>
  <path d="m41.36,57.28h-18.65c-.74,0-1.33-.6-1.33-1.33s.6-1.33,1.33-1.33h18.65c.74,0,1.33.6,1.33,1.33s-.6,1.33-1.33,1.33Z"/>
  <path d="m58.67,57.28h-4c-.74,0-1.33-.6-1.33-1.33s.6-1.33,1.33-1.33h4c1.47,0,2.66-1.1,2.66-2.46v-8.84c0-.72-.23-1.43-.65-2.04l-8.18-11.63c-.74-1.05-1.99-1.68-3.34-1.68h-2.48c-.74,0-1.33-.6-1.33-1.33s.6-1.33,1.33-1.33h2.48c2.22,0,4.28,1.05,5.52,2.82l8.18,11.63c.74,1.06,1.14,2.29,1.14,3.57v8.84c0,2.82-2.39,5.12-5.33,5.12Z"/>
  <path d="m9.39,57.28h-5.33c-2.2,0-4-1.79-4-4v-4c0-.74.6-1.33,1.33-1.33s1.33.6,1.33,1.33v4c0,.73.6,1.33,1.33,1.33h5.33c.74,0,1.33.6,1.33,1.33s-.6,1.33-1.33,1.33Z"/>
  <path d="m44.02,45.29H2.73c-.74,0-1.33-.6-1.33-1.33s.6-1.33,1.33-1.33h41.29c.74,0,1.33.6,1.33,1.33s-.6,1.33-1.33,1.33Z"/>
  <path d="m41.36,39.96c-.74,0-1.33-.6-1.33-1.33V14.65c0-.73-.6-1.33-1.33-1.33h-2.66c-.74,0-1.33-.6-1.33-1.33s.6-1.33,1.33-1.33h2.66c2.2,0,4,1.79,4,4v23.98c0,.74-.6,1.33-1.33,1.33Z"/>
  <path d="m1.39,39.96c-.74,0-1.33-.6-1.33-1.33V14.65c0-2.2,1.79-4,4-4h2.66c.74,0,1.33.6,1.33,1.33s-.6,1.33-1.33,1.33h-2.66c-.73,0-1.33.6-1.33,1.33v23.98c0,.74-.6,1.33-1.33,1.33Z"/>
  <path d="m21.37,27.97c-.31,0-.62-.11-.87-.32-.4-.34-9.79-8.49-9.79-17C10.72,4.78,15.5,0,21.37,0s10.66,4.78,10.66,10.66c0,8.51-9.39,16.65-9.79,17-.25.21-.56.32-.87.32Zm0-25.31c-4.41,0-7.99,3.59-7.99,7.99,0,5.9,5.76,12.02,7.99,14.17,2.23-2.15,7.99-8.27,7.99-14.17,0-4.41-3.59-7.99-7.99-7.99Z"/>
  <path d="m21.37,15.98c-2.94,0-5.33-2.39-5.33-5.33s2.39-5.33,5.33-5.33,5.33,2.39,5.33,5.33-2.39,5.33-5.33,5.33Zm0-7.99c-1.47,0-2.66,1.19-2.66,2.66s1.2,2.66,2.66,2.66,2.66-1.19,2.66-2.66-1.2-2.66-2.66-2.66Z"/>
  <path d="m24.04,34.63h-7.99c-.74,0-1.33-.6-1.33-1.33s.6-1.33,1.33-1.33h7.99c.74,0,1.33.6,1.33,1.33s-.6,1.33-1.33,1.33Z"/>
  <path d="m10.72,34.63h-1.33c-.74,0-1.33-.6-1.33-1.33s.6-1.33,1.33-1.33h1.33c.74,0,1.33.6,1.33,1.33s-.6,1.33-1.33,1.33Z"/>
</svg>