<?xml version="1.0" encoding="UTF-8"?>
<svg id="Layer_1" data-name="Layer 1" xmlns="http://www.w3.org/2000/svg" viewBox="0 0 64 64">
  <path d="m46.7,64h-9.33c-.74,0-1.33-.6-1.33-1.33s.6-1.33,1.33-1.33h9.33c7.35,0,13.33-6.13,13.33-13.67s-5.98-13.67-13.33-13.67h-10.07c-.74,0-1.33-.6-1.33-1.33v-4.8l-12.92,8.89,12.92,8.89v-4.8c0-.74.6-1.33,1.33-1.33h10.07c4.41,0,8,3.66,8,8.15s-3.59,8.15-8,8.15h-5.33c-.74,0-1.33-.6-1.33-1.33s.6-1.33,1.33-1.33h5.33c2.94,0,5.33-2.46,5.33-5.49s-2.39-5.48-5.33-5.48h-8.73v6c0,.49-.27.95-.71,1.18-.44.23-.97.2-1.38-.08l-16.6-11.42c-.36-.25-.58-.66-.58-1.1s.22-.85.58-1.1l16.6-11.42c.41-.28.94-.31,1.38-.08.44.23.71.68.71,1.18v6h8.73c8.82,0,16,7.33,16,16.33s-7.18,16.33-16,16.33Z"/>
  <path d="m30.7,53.33H6.7c-2.94,0-5.33-2.39-5.33-5.33V5.33C1.36,2.39,3.76,0,6.7,0h45.33c2.94,0,5.33,2.39,5.33,5.33v24c0,.74-.6,1.33-1.33,1.33s-1.33-.6-1.33-1.33V5.33c0-1.47-1.2-2.67-2.67-2.67H6.7c-1.47,0-2.67,1.2-2.67,2.67v42.67c0,1.47,1.2,2.67,2.67,2.67h24c.74,0,1.33.6,1.33,1.33s-.6,1.33-1.33,1.33Z"/>
  <path d="m46.7,14.67c-.17,0-.34-.03-.49-.1l-6.17-2.47-6.17,2.47c-.41.16-.88.11-1.24-.13s-.59-.66-.59-1.1V1.33c0-.74.6-1.33,1.33-1.33s1.33.6,1.33,1.33v10.03l4.84-1.94c.32-.13.67-.13.99,0l4.84,1.94v-4.7c0-.74.6-1.33,1.33-1.33s1.33.6,1.33,1.33v6.67c0,.44-.22.86-.59,1.1-.22.15-.48.23-.75.23Z"/>
</svg>