<?xml version="1.0" encoding="UTF-8"?>
<svg id="Layer_1" data-name="Layer 1" xmlns="http://www.w3.org/2000/svg" viewBox="0 0 64 64">
  <path d="m55.51,51.05H21.28c-1.81,0-3.4-1.22-3.89-2.96L7.47,12.09H1.77c-.74,0-1.34-.6-1.34-1.34s.6-1.34,1.34-1.34h5.69c1.2,0,2.27.81,2.59,1.97l9.93,36c.16.58.69.99,1.3.99h34.23c.74,0,1.34.6,1.34,1.34s-.6,1.34-1.34,1.34Z"/>
  <path d="m23.27,44.33c-.67,0-1.25-.51-1.33-1.19-.08-.74.44-1.4,1.18-1.49l32.97-3.78c.62-.07,1.1-.56,1.18-1.18l2.27-19.23H16.55c-.74,0-1.34-.6-1.34-1.34s.6-1.34,1.34-1.34h42.98c.77,0,1.5.33,2.01.9.51.57.75,1.34.66,2.1l-2.27,19.23c-.22,1.86-1.67,3.31-3.53,3.53l-32.98,3.78c-.05,0-.1,0-.15,0Z"/>
  <path d="m24.61,64.48c-2.96,0-5.37-2.41-5.37-5.37s2.41-5.37,5.37-5.37,5.37,2.41,5.37,5.37-2.41,5.37-5.37,5.37Zm0-8.06c-1.48,0-2.69,1.21-2.69,2.69s1.2,2.69,2.69,2.69,2.69-1.21,2.69-2.69-1.2-2.69-2.69-2.69Z"/>
  <path d="m51.48,64.48c-2.96,0-5.37-2.41-5.37-5.37s2.41-5.37,5.37-5.37,5.37,2.41,5.37,5.37-2.41,5.37-5.37,5.37Zm0-8.06c-1.48,0-2.69,1.21-2.69,2.69s1.21,2.69,2.69,2.69,2.69-1.21,2.69-2.69-1.21-2.69-2.69-2.69Z"/>
  <path d="m20.58,17.46c-.74,0-1.34-.6-1.34-1.34V2.69c0-1.48,1.2-2.69,2.69-2.69h17.46c1.48,0,2.69,1.2,2.69,2.69v8.06c0,.74-.6,1.34-1.34,1.34s-1.34-.6-1.34-1.34V2.69h-17.46v13.43c0,.74-.6,1.34-1.34,1.34Z"/>
  <path d="m54.17,17.46c-.74,0-1.34-.6-1.34-1.34V6.72h-6.72c-.74,0-1.34-.6-1.34-1.34s.6-1.34,1.34-1.34h6.72c1.48,0,2.69,1.2,2.69,2.69v9.4c0,.74-.6,1.34-1.34,1.34Z"/>
  <path d="m36.7,34.93c-.74,0-1.34-.6-1.34-1.34v-10.75c0-.74.6-1.34,1.34-1.34s1.34.6,1.34,1.34v10.75c0,.74-.6,1.34-1.34,1.34Z"/>
  <path d="m27.3,34.93c-.74,0-1.34-.6-1.34-1.34v-10.75c0-.74.6-1.34,1.34-1.34s1.34.6,1.34,1.34v10.75c0,.74-.6,1.34-1.34,1.34Z"/>
  <path d="m47.45,34.93c-.74,0-1.34-.6-1.34-1.34v-10.75c0-.74.6-1.34,1.34-1.34s1.34.6,1.34,1.34v10.75c0,.74-.6,1.34-1.34,1.34Z"/>
</svg>