<?xml version="1.0" encoding="UTF-8"?>
<svg id="Layer_1" data-name="Layer 1" xmlns="http://www.w3.org/2000/svg" viewBox="0 0 64 64">
  <path d="m49.29,38.47c-3.3,0-5.98-2.68-5.98-5.98s2.68-5.98,5.98-5.98,5.98,2.68,5.98,5.98c0,.74-.6,1.33-1.33,1.33s-1.33-.59-1.33-1.33c0-1.83-1.49-3.32-3.32-3.32s-3.32,1.49-3.32,3.32,1.49,3.32,3.32,3.32c.33,0,.65-.05.95-.14.7-.21,1.44.19,1.66.89s-.19,1.44-.89,1.65c-.55.16-1.13.25-1.71.25Z"/>
  <path d="m14.04,31.15c-2.57,0-4.65-2.09-4.65-4.65s2.09-4.65,4.65-4.65,4.65,2.09,4.65,4.65-2.09,4.65-4.65,4.65Zm0-6.65c-1.1,0-1.99.89-1.99,1.99s.89,1.99,1.99,1.99,1.99-.89,1.99-1.99-.89-1.99-1.99-1.99Z"/>
  <path d="m26.01,43.12c-2.57,0-4.65-2.09-4.65-4.65s2.09-4.65,4.65-4.65,4.65,2.09,4.65,4.65-2.09,4.65-4.65,4.65Zm0-6.65c-1.1,0-1.99.89-1.99,1.99s.89,1.99,1.99,1.99,1.99-.89,1.99-1.99-.89-1.99-1.99-1.99Z"/>
  <path d="m13.38,43.12c-.27,0-.54-.08-.77-.25-.6-.43-.74-1.26-.31-1.85l13.3-18.62c.43-.6,1.26-.74,1.86-.31.6.43.74,1.26.31,1.85l-13.3,18.62c-.26.36-.67.56-1.08.56Z"/>
  <path d="m48.87,53.76H5.44c-2.96,0-5.36-2.39-5.36-5.32v-31.92c0-2.93,2.41-5.32,5.36-5.32h43.43c1.87,0,3.63.99,4.6,2.58l9.68,15.96c1.03,1.69,1.03,3.79,0,5.48l-9.68,15.96c-.96,1.59-2.72,2.58-4.6,2.58ZM5.44,13.86c-1.49,0-2.7,1.19-2.7,2.66v31.92c0,1.47,1.21,2.66,2.7,2.66h43.43c.95,0,1.84-.5,2.32-1.3l9.68-15.96c.51-.84.51-1.89,0-2.73l-9.68-15.96c-.49-.8-1.37-1.3-2.32-1.3H5.44Z"/>
</svg>