<?xml version="1.0" encoding="UTF-8"?>
<svg id="Layer_1" data-name="Layer 1" xmlns="http://www.w3.org/2000/svg" viewBox="0 0 64 64">
  <path d="m17.37,18.11c-.21,0-.42-.05-.61-.15-2.64-1.37-4.27-2.3-4.64-3.84-.36-1.48.54-2.75,2.02-4.85.51-.72,1.1-1.56,1.76-2.56,1.37-2.09,3.03-2.54,4.18-2.56,3.25-.05,7.08,3.19,11.75,9.88.42.6.27,1.43-.33,1.85s-1.43.27-1.85-.33c-5.34-7.65-8.24-8.73-9.53-8.74-.48,0-1.2.15-1.99,1.36-.68,1.03-1.29,1.9-1.81,2.63-.78,1.1-1.66,2.34-1.61,2.69.14.48,2.5,1.7,3.28,2.11.65.34.91,1.14.57,1.8-.24.46-.7.72-1.18.72Z"/>
  <path d="m42.69,17.9c-.47,0-.92-.25-1.16-.68-.36-.64-.13-1.45.51-1.81l1.61-.9c3.2-1.78,5.51-3.07,5.69-3.79.12-.48-.74-1.83-1.74-3.38-.55-.85-1.19-1.85-1.9-3.04-.96-1.6-1.83-1.62-2.12-1.63-1.22-.03-4.03,1.05-9.11,8.68-.41.61-1.24.78-1.85.37-.61-.41-.78-1.24-.37-1.85C36.73,3.15,40.44-.03,43.64,0c1.2.03,2.93.56,4.34,2.93.69,1.17,1.32,2.14,1.85,2.97,1.55,2.41,2.48,3.87,2.08,5.47-.46,1.84-2.37,2.9-6.98,5.47l-1.6.89c-.21.12-.43.17-.65.17Z"/>
  <path d="m54.67,63.94H9.38c-2.94,0-5.33-2.39-5.33-5.33v-25.31c0-.74.6-1.33,1.33-1.33s1.33.6,1.33,1.33v25.31c0,1.47,1.2,2.67,2.67,2.67h45.29c1.47,0,2.67-1.2,2.67-2.67v-19.98c0-.74.6-1.33,1.33-1.33s1.33.6,1.33,1.33v19.98c0,2.94-2.39,5.33-5.33,5.33Z"/>
  <path d="m40.02,42.63c-.14,0-.28-.02-.42-.07l-7.57-2.52-7.57,2.52c-.41.13-.85.07-1.2-.18-.35-.25-.55-.65-.55-1.08v-21.31c0-.74.6-1.33,1.33-1.33s1.33.6,1.33,1.33v19.47l6.24-2.08c.27-.09.57-.09.84,0l6.24,2.08v-14.14c0-.74.6-1.33,1.33-1.33s1.33.6,1.33,1.33v15.99c0,.43-.21.83-.55,1.08-.23.17-.5.25-.78.25Z"/>
  <path d="m58.67,34.64h-18.65c-.74,0-1.33-.6-1.33-1.33s.6-1.33,1.33-1.33h18.65c1.47,0,2.66-1.19,2.66-2.66v-5.33c0-1.47-1.19-2.66-2.66-2.66H5.38c-1.47,0-2.66,1.19-2.66,2.66v5.33c0,1.47,1.19,2.66,2.66,2.66h18.65c.74,0,1.33.6,1.33,1.33s-.6,1.33-1.33,1.33H5.38C2.45,34.64.06,32.25.06,29.31v-5.33c0-2.94,2.39-5.33,5.33-5.33h53.29c2.94,0,5.33,2.39,5.33,5.33v5.33c0,2.94-2.39,5.33-5.33,5.33Z"/>
</svg>